<svg width="2739" height="1061" viewBox="0 0 2739 1061" fill="none" xmlns="http://www.w3.org/2000/svg">
<g clip-path="url(#clip0_297_33831)">
<path d="M280.217 428.191C298.011 428.191 312.435 413.724 312.435 395.878C312.435 378.033 298.011 363.566 280.217 363.566C262.424 363.566 248 378.033 248 395.878C248 413.724 262.424 428.191 280.217 428.191Z" fill="#00B084"/>
<path d="M495.442 701.63L327.436 819.027C320.215 824.092 310.267 818.875 310.267 810.012V497.781C310.267 481.118 296.835 467.646 280.221 467.646C263.607 467.646 250.175 481.118 250.175 497.781V680.815V888.817C250.175 913.178 277.494 927.46 297.39 913.532L816.86 550.503C833.979 538.551 834.029 513.177 816.961 501.123L816.911 501.073C806.559 493.78 792.773 493.729 782.421 500.971L495.442 701.63Z" fill="#00B084"/>
<path d="M643.451 477.825L425.907 629.864C418.686 634.929 408.738 629.712 408.738 620.849V543.412C408.738 534.852 415.656 527.914 424.19 527.914H435.198C450.247 527.914 462.417 515.708 462.417 500.616V497.78C462.417 481.117 448.934 467.595 432.32 467.595H375.005C360.411 467.595 348.544 479.496 348.544 494.133V737.182C348.544 745.742 358.139 750.755 365.108 745.843L442.218 691.956L735.155 487.195C750.304 476.61 750.355 454.072 735.256 443.386L558.312 318.493L291.835 130.395C274.313 118.037 250.175 130.597 250.175 152.071V160.934C250.175 169.595 254.366 177.647 261.385 182.611L643.501 452.3C652.288 458.63 652.237 471.697 643.451 477.825Z" fill="#00B084"/>
<path d="M1053 488C1041.27 488 1029.53 487.067 1017.8 485.2C1006.07 483.6 995 481.067 984.6 477.6C974.2 473.867 964.867 469.333 956.6 464C951.8 460.8 948.467 456.933 946.6 452.4C944.733 447.867 944.067 443.467 944.6 439.2C945.4 434.667 947.133 430.8 949.8 427.6C952.733 424.133 956.333 422 960.6 421.2C964.867 420.4 969.533 421.6 974.6 424.8C986.333 431.733 998.733 436.8 1011.8 440C1024.87 443.2 1038.6 444.8 1053 444.8C1074.07 444.8 1089.4 441.333 1099 434.4C1108.6 427.2 1113.4 418 1113.4 406.8C1113.4 397.467 1109.93 390.133 1103 384.8C1096.33 379.467 1084.73 375.067 1068.2 371.6L1024.2 362.4C998.867 357.067 979.933 348.133 967.4 335.6C955.133 322.8 949 306 949 285.2C949 272.133 951.667 260.267 957 249.6C962.333 238.933 969.8 229.733 979.4 222C989.267 214.267 1000.87 208.4 1014.2 204.4C1027.8 200.133 1042.73 198 1059 198C1075 198 1090.2 200 1104.6 204C1119 208 1131.93 213.867 1143.4 221.6C1147.67 224.533 1150.47 228.133 1151.8 232.4C1153.4 236.667 1153.8 240.933 1153 245.2C1152.2 249.2 1150.33 252.667 1147.4 255.6C1144.47 258.533 1140.73 260.267 1136.2 260.8C1131.93 261.333 1127 260 1121.4 256.8C1111.53 251.2 1101.53 247.2 1091.4 244.8C1081.27 242.4 1070.33 241.2 1058.6 241.2C1046.33 241.2 1035.8 242.933 1027 246.4C1018.2 249.867 1011.4 254.8 1006.6 261.2C1002.07 267.333 999.8 274.667 999.8 283.2C999.8 292.8 1003 300.533 1009.4 306.4C1015.8 312 1026.73 316.4 1042.2 319.6L1085.8 328.8C1112.2 334.4 1131.8 343.2 1144.6 355.2C1157.67 367.2 1164.2 383.2 1164.2 403.2C1164.2 416 1161.53 427.6 1156.2 438C1151.13 448.4 1143.67 457.333 1133.8 464.8C1124.2 472.267 1112.6 478 1099 482C1085.4 486 1070.07 488 1053 488ZM1292.54 488C1272.28 488 1254.68 483.867 1239.74 475.6C1224.81 467.333 1213.21 455.6 1204.94 440.4C1196.68 424.933 1192.54 406.8 1192.54 386C1192.54 370.267 1194.81 356.267 1199.34 344C1204.14 331.467 1210.94 320.8 1219.74 312C1228.54 302.933 1239.08 296.133 1251.34 291.6C1263.61 286.8 1277.34 284.4 1292.54 284.4C1312.81 284.4 1330.41 288.533 1345.34 296.8C1360.28 305.067 1371.88 316.8 1380.14 332C1388.41 347.2 1392.54 365.2 1392.54 386C1392.54 401.733 1390.14 415.867 1385.34 428.4C1380.81 440.933 1374.14 451.733 1365.34 460.8C1356.54 469.6 1346.01 476.4 1333.74 481.2C1321.48 485.733 1307.74 488 1292.54 488ZM1292.54 450C1302.41 450 1311.08 447.6 1318.54 442.8C1326.01 438 1331.74 430.933 1335.74 421.6C1340.01 412 1342.14 400.133 1342.14 386C1342.14 364.667 1337.61 348.8 1328.54 338.4C1319.48 327.733 1307.48 322.4 1292.54 322.4C1282.68 322.4 1274.01 324.8 1266.54 329.6C1259.08 334.133 1253.21 341.2 1248.94 350.8C1244.94 360.133 1242.94 371.867 1242.94 386C1242.94 407.067 1247.48 423.067 1256.54 434C1265.61 444.667 1277.61 450 1292.54 450ZM1470.26 487.2C1462.26 487.2 1455.99 485.067 1451.46 480.8C1447.19 476.267 1445.06 469.867 1445.06 461.6V326H1426.66C1420.26 326 1415.33 324.4 1411.86 321.2C1408.39 317.733 1406.66 313.067 1406.66 307.2C1406.66 301.067 1408.39 296.4 1411.86 293.2C1415.33 290 1420.26 288.4 1426.66 288.4H1459.46L1445.06 301.6V288C1445.06 260.533 1451.99 240 1465.86 226.4C1479.73 212.533 1499.73 204.4 1525.86 202L1539.46 200.8C1544.79 200.267 1549.06 201.2 1552.26 203.6C1555.46 205.733 1557.59 208.667 1558.66 212.4C1559.73 215.867 1559.86 219.467 1559.06 223.2C1558.26 226.933 1556.53 230.267 1553.86 233.2C1551.46 235.867 1548.26 237.333 1544.26 237.6L1538.66 238C1523.46 239.067 1512.39 242.933 1505.46 249.6C1498.53 256.267 1495.06 266.4 1495.06 280V294.8L1488.66 288.4H1529.06C1535.46 288.4 1540.39 290 1543.86 293.2C1547.33 296.4 1549.06 301.067 1549.06 307.2C1549.06 313.067 1547.33 317.733 1543.86 321.2C1540.39 324.4 1535.46 326 1529.06 326H1495.06V461.6C1495.06 478.667 1486.79 487.2 1470.26 487.2ZM1656.23 488C1638.89 488 1624.36 485.067 1612.63 479.2C1601.16 473.333 1592.63 464.8 1587.03 453.6C1581.43 442.133 1578.63 428 1578.63 411.2V326H1557.83C1551.43 326 1546.49 324.4 1543.03 321.2C1539.56 317.733 1537.82 313.067 1537.82 307.2C1537.82 301.067 1539.56 296.4 1543.03 293.2C1546.49 290 1551.43 288.4 1557.83 288.4H1578.63V252C1578.63 243.733 1580.76 237.467 1585.03 233.2C1589.56 228.933 1595.83 226.8 1603.83 226.8C1611.83 226.8 1617.96 228.933 1622.23 233.2C1626.49 237.467 1628.63 243.733 1628.63 252V288.4H1671.03C1677.43 288.4 1682.36 290 1685.83 293.2C1689.29 296.4 1691.03 301.067 1691.03 307.2C1691.03 313.067 1689.29 317.733 1685.83 321.2C1682.36 324.4 1677.43 326 1671.03 326H1628.63V408.4C1628.63 421.2 1631.43 430.8 1637.03 437.2C1642.63 443.6 1651.69 446.8 1664.23 446.8C1668.76 446.8 1672.76 446.4 1676.23 445.6C1679.69 444.8 1682.76 444.267 1685.43 444C1688.63 443.733 1691.29 444.8 1693.43 447.2C1695.56 449.333 1696.63 453.867 1696.63 460.8C1696.63 466.133 1695.69 470.933 1693.83 475.2C1692.23 479.2 1689.16 482 1684.63 483.6C1681.16 484.667 1676.63 485.6 1671.03 486.4C1665.43 487.467 1660.49 488 1656.23 488ZM1798.87 487.2C1792.2 487.2 1786.47 485.6 1781.67 482.4C1776.87 478.933 1773 473.6 1770.07 466.4L1712.07 318.4C1709.67 312 1708.87 306.4 1709.67 301.6C1710.73 296.533 1713.27 292.533 1717.27 289.6C1721.27 286.667 1726.6 285.2 1733.27 285.2C1739.13 285.2 1743.93 286.667 1747.67 289.6C1751.4 292.267 1754.6 297.467 1757.27 305.2L1805.67 438.4H1796.47L1846.47 302C1848.6 296.133 1851.4 291.867 1854.87 289.2C1858.6 286.533 1863.4 285.2 1869.27 285.2C1875.13 285.2 1879.93 286.667 1883.67 289.6C1887.4 292.267 1890.2 296.4 1892.07 302L1941.27 438.4H1932.87L1981.67 304C1984.33 296.8 1987.67 291.867 1991.67 289.2C1995.93 286.533 2000.6 285.2 2005.67 285.2C2012.07 285.2 2017 286.8 2020.47 290C2023.93 293.2 2025.93 297.333 2026.47 302.4C2027 307.2 2026.07 312.533 2023.67 318.4L1966.07 466.4C1963.4 473.333 1959.53 478.533 1954.47 482C1949.67 485.467 1943.93 487.2 1937.27 487.2C1930.6 487.2 1924.73 485.467 1919.67 482C1914.87 478.533 1911.13 473.333 1908.47 466.4L1856.07 327.6H1878.87L1827.67 466C1825 473.2 1821.27 478.533 1816.47 482C1811.67 485.467 1805.8 487.2 1798.87 487.2ZM2124.78 488C2110.64 488 2097.98 485.333 2086.78 480C2075.84 474.4 2067.18 466.933 2060.77 457.6C2054.64 448.267 2051.58 437.733 2051.58 426C2051.58 411.6 2055.31 400.267 2062.78 392C2070.24 383.467 2082.38 377.333 2099.18 373.6C2115.98 369.867 2138.51 368 2166.78 368H2186.78V396.8H2167.18C2150.64 396.8 2137.44 397.6 2127.58 399.2C2117.71 400.8 2110.64 403.6 2106.38 407.6C2102.38 411.333 2100.38 416.667 2100.38 423.6C2100.38 432.4 2103.44 439.6 2109.58 445.2C2115.71 450.8 2124.24 453.6 2135.18 453.6C2143.98 453.6 2151.71 451.6 2158.38 447.6C2165.31 443.333 2170.78 437.6 2174.78 430.4C2178.78 423.2 2180.78 414.933 2180.78 405.6V359.6C2180.78 346.267 2177.84 336.667 2171.98 330.8C2166.11 324.933 2156.24 322 2142.38 322C2134.64 322 2126.24 322.933 2117.18 324.8C2108.38 326.667 2099.04 329.867 2089.18 334.4C2084.11 336.8 2079.58 337.467 2075.58 336.4C2071.84 335.333 2068.91 333.2 2066.78 330C2064.64 326.533 2063.58 322.8 2063.58 318.8C2063.58 314.8 2064.64 310.933 2066.78 307.2C2068.91 303.2 2072.51 300.267 2077.58 298.4C2089.84 293.333 2101.58 289.733 2112.78 287.6C2124.24 285.467 2134.64 284.4 2143.98 284.4C2163.18 284.4 2178.91 287.333 2191.18 293.2C2203.71 299.067 2213.04 308 2219.18 320C2225.31 331.733 2228.38 346.933 2228.38 365.6V461.6C2228.38 469.867 2226.38 476.267 2222.38 480.8C2218.38 485.067 2212.64 487.2 2205.18 487.2C2197.71 487.2 2191.84 485.067 2187.58 480.8C2183.58 476.267 2181.58 469.867 2181.58 461.6V442.4H2184.78C2182.91 451.733 2179.18 459.867 2173.58 466.8C2168.24 473.467 2161.44 478.667 2153.18 482.4C2144.91 486.133 2135.44 488 2124.78 488ZM2304.73 487.2C2296.46 487.2 2290.06 485.067 2285.53 480.8C2281.26 476.267 2279.13 469.867 2279.13 461.6V310.4C2279.13 302.133 2281.26 295.867 2285.53 291.6C2289.79 287.333 2295.79 285.2 2303.53 285.2C2311.26 285.2 2317.26 287.333 2321.53 291.6C2325.79 295.867 2327.93 302.133 2327.93 310.4V335.6H2323.93C2327.66 319.6 2334.99 307.467 2345.93 299.2C2356.86 290.933 2371.39 286 2389.53 284.4C2395.13 283.867 2399.53 285.333 2402.73 288.8C2406.19 292 2408.19 297.067 2408.73 304C2409.26 310.667 2407.66 316.133 2403.93 320.4C2400.46 324.4 2395.13 326.8 2387.93 327.6L2379.13 328.4C2362.86 330 2350.59 335.067 2342.33 343.6C2334.06 351.867 2329.93 363.6 2329.93 378.8V461.6C2329.93 469.867 2327.79 476.267 2323.53 480.8C2319.26 485.067 2312.99 487.2 2304.73 487.2ZM2529.04 488C2506.91 488 2487.84 483.867 2471.84 475.6C2455.84 467.333 2443.44 455.6 2434.64 440.4C2426.11 425.2 2421.84 407.2 2421.84 386.4C2421.84 366.133 2425.97 348.4 2434.24 333.2C2442.77 318 2454.37 306.133 2469.04 297.6C2483.97 288.8 2500.91 284.4 2519.84 284.4C2533.71 284.4 2546.11 286.667 2557.04 291.2C2568.24 295.733 2577.71 302.267 2585.44 310.8C2593.44 319.333 2599.44 329.733 2603.44 342C2607.71 354 2609.84 367.6 2609.84 382.8C2609.84 387.6 2608.11 391.333 2604.64 394C2601.44 396.4 2596.77 397.6 2590.64 397.6H2462.24V368.8H2574.64L2568.24 374.8C2568.24 362.533 2566.37 352.267 2562.64 344C2559.17 335.733 2553.97 329.467 2547.04 325.2C2540.37 320.667 2531.97 318.4 2521.84 318.4C2510.64 318.4 2501.04 321.067 2493.04 326.4C2485.31 331.467 2479.31 338.8 2475.04 348.4C2471.04 357.733 2469.04 368.933 2469.04 382V384.8C2469.04 406.667 2474.11 423.067 2484.24 434C2494.64 444.667 2509.84 450 2529.84 450C2536.77 450 2544.51 449.2 2553.04 447.6C2561.84 445.733 2570.11 442.667 2577.84 438.4C2583.44 435.2 2588.37 433.867 2592.64 434.4C2596.91 434.667 2600.24 436.133 2602.64 438.8C2605.31 441.467 2606.91 444.8 2607.44 448.8C2607.97 452.533 2607.17 456.4 2605.04 460.4C2603.17 464.4 2599.84 467.867 2595.04 470.8C2585.71 476.667 2574.91 481.067 2562.64 484C2550.64 486.667 2539.44 488 2529.04 488Z" fill="#4B5157"/>
<path d="M985.51 726.109C978.385 726.109 972.072 724.547 966.572 721.422C961.072 718.172 957.01 713.734 954.385 708.109V717.859C954.385 723.109 951.885 725.734 946.885 725.734C941.885 725.734 939.385 723.109 939.385 717.859V598.609C939.385 593.484 941.885 590.922 946.885 590.922C952.01 590.922 954.572 593.484 954.572 598.609V649.047C957.197 643.672 961.26 639.422 966.76 636.297C972.26 633.172 978.51 631.609 985.51 631.609C993.635 631.609 1000.7 633.547 1006.7 637.422C1012.82 641.172 1017.51 646.609 1020.76 653.734C1024.13 660.734 1025.82 669.109 1025.82 678.859C1025.82 688.484 1024.13 696.859 1020.76 703.984C1017.51 710.984 1012.82 716.422 1006.7 720.297C1000.7 724.172 993.635 726.109 985.51 726.109ZM982.322 713.922C990.822 713.922 997.635 710.922 1002.76 704.922C1007.88 698.797 1010.45 690.109 1010.45 678.859C1010.45 667.484 1007.88 658.797 1002.76 652.797C997.635 646.797 990.822 643.797 982.322 643.797C973.822 643.797 967.01 646.797 961.885 652.797C956.76 658.797 954.197 667.484 954.197 678.859C954.197 690.109 956.76 698.797 961.885 704.922C967.01 710.922 973.822 713.922 982.322 713.922ZM1086.42 759.484C1083.54 759.484 1081.6 758.359 1080.6 756.109C1079.6 753.984 1079.67 751.547 1080.79 748.797L1092.23 722.922L1057.73 642.672C1056.48 639.797 1056.42 637.297 1057.54 635.172C1058.79 633.047 1061.1 631.984 1064.48 631.984C1067.98 631.984 1070.54 633.984 1072.17 637.984L1100.48 707.172L1128.98 637.984C1129.98 635.734 1131.04 634.172 1132.17 633.297C1133.29 632.422 1134.92 631.984 1137.04 631.984C1139.92 631.984 1141.85 633.047 1142.85 635.172C1143.85 637.297 1143.79 639.734 1142.67 642.484L1094.67 753.484C1093.67 755.734 1092.54 757.297 1091.29 758.172C1090.17 759.047 1088.54 759.484 1086.42 759.484ZM1258.82 724.422C1253.2 724.422 1250.38 721.609 1250.38 715.984V600.672C1250.38 595.047 1253.2 592.234 1258.82 592.234H1295.01C1316.38 592.234 1332.88 597.922 1344.51 609.297C1356.13 620.547 1361.95 636.859 1361.95 658.234C1361.95 679.609 1356.13 695.984 1344.51 707.359C1332.88 718.734 1316.38 724.422 1295.01 724.422H1258.82ZM1265.76 711.297H1293.88C1328.38 711.297 1345.63 693.609 1345.63 658.234C1345.63 622.984 1328.38 605.359 1293.88 605.359H1265.76V711.297ZM1447.29 726.109C1432.92 726.109 1421.54 721.922 1413.17 713.547C1404.79 705.047 1400.61 693.547 1400.61 679.047C1400.61 669.672 1402.48 661.422 1406.23 654.297C1409.98 647.047 1415.11 641.484 1421.61 637.609C1428.23 633.609 1435.86 631.609 1444.48 631.609C1456.86 631.609 1466.54 635.609 1473.54 643.609C1480.54 651.484 1484.04 662.359 1484.04 676.234C1484.04 680.109 1481.86 682.047 1477.48 682.047H1415.42C1415.92 692.422 1418.92 700.359 1424.42 705.859C1429.92 711.234 1437.54 713.922 1447.29 713.922C1451.42 713.922 1455.61 713.422 1459.86 712.422C1464.11 711.297 1468.23 709.359 1472.23 706.609C1475.11 704.734 1477.48 704.359 1479.36 705.484C1481.36 706.609 1482.36 708.359 1482.36 710.734C1482.48 712.984 1481.23 714.984 1478.61 716.734C1474.48 719.734 1469.54 722.047 1463.79 723.672C1458.17 725.297 1452.67 726.109 1447.29 726.109ZM1444.86 642.859C1436.23 642.859 1429.42 645.547 1424.42 650.922C1419.42 656.297 1416.48 663.359 1415.61 672.109H1470.92C1470.54 662.859 1468.11 655.672 1463.61 650.547C1459.23 645.422 1452.98 642.859 1444.86 642.859ZM1557.61 725.734C1553.24 725.734 1549.99 723.297 1547.86 718.422L1515.42 642.672C1514.17 639.797 1514.11 637.297 1515.24 635.172C1516.36 633.047 1518.61 631.984 1521.99 631.984C1525.49 631.984 1528.05 633.984 1529.67 637.984L1557.99 707.172L1586.67 637.984C1587.55 635.734 1588.55 634.172 1589.67 633.297C1590.8 632.422 1592.42 631.984 1594.55 631.984C1597.42 631.984 1599.36 633.047 1600.36 635.172C1601.36 637.297 1601.3 639.734 1600.17 642.484L1567.36 718.422C1565.36 723.297 1562.11 725.734 1557.61 725.734ZM1648.67 725.734C1643.55 725.734 1640.98 723.047 1640.98 717.672V598.984C1640.98 593.609 1643.55 590.922 1648.67 590.922C1653.8 590.922 1656.36 593.609 1656.36 598.984V717.672C1656.36 723.047 1653.8 725.734 1648.67 725.734ZM1748.02 725.734C1742.89 725.734 1740.33 723.047 1740.33 717.672V605.547H1698.14C1693.39 605.547 1691.02 603.297 1691.02 598.797C1691.02 594.422 1693.39 592.234 1698.14 592.234H1798.08C1802.83 592.234 1805.2 594.422 1805.2 598.797C1805.2 603.297 1802.83 605.547 1798.08 605.547H1755.89V717.672C1755.89 723.047 1753.27 725.734 1748.02 725.734Z" fill="#939699"/>
</g>
<defs>
<clipPath id="clip0_297_33831">
<rect width="2739" height="1061" fill="white"/>
</clipPath>
</defs>
</svg>
